<svg width="32" height="32" viewBox="0 0 32 32" fill="none" xmlns="http://www.w3.org/2000/svg">
<path d="M16 32C24.8366 32 32 24.8366 32 16C32 7.16344 24.8366 0 16 0C7.16344 0 0 7.16344 0 16C0 24.8366 7.16344 32 16 32Z" fill="#007AB9"/>
<path d="M11.7838 10.1666C11.7835 10.8452 11.3718 11.4558 10.7429 11.7106C10.1139 11.9653 9.39331 11.8133 8.92083 11.3263C8.44836 10.8392 8.31837 10.1143 8.59216 9.49335C8.86596 8.87245 9.48886 8.47954 10.1671 8.4999C11.068 8.52694 11.7842 9.26527 11.7838 10.1666ZM11.8338 13.0666H8.50048V23.4999H11.8338V13.0666ZM17.1005 13.0666H13.7838V23.4999H17.0672V18.0249C17.0672 14.9749 21.0422 14.6915 21.0422 18.0249V23.4999H24.3338V16.8915C24.3338 11.7499 18.4505 11.9416 17.0672 14.4665L17.1005 13.0666Z" fill="white"/>
</svg>
