<svg width="32" height="32" viewBox="0 0 32 32" fill="none" xmlns="http://www.w3.org/2000/svg">
<path d="M16 32C24.8366 32 32 24.8366 32 16C32 7.16344 24.8366 0 16 0C7.16344 0 0 7.16344 0 16C0 24.8366 7.16344 32 16 32Z" fill="#55ACEE"/>
<path d="M24.2942 11.3751C24.4057 11.2452 24.2604 11.0755 24.0956 11.1363C23.7277 11.272 23.3916 11.3615 22.8944 11.4167C23.5059 11.0762 23.7903 10.5895 24.0217 9.99345C24.0774 9.84967 23.9092 9.71921 23.7642 9.78789C23.1757 10.067 22.5406 10.274 21.8727 10.3963C21.2127 9.74216 20.2717 9.33337 19.2309 9.33337C17.2322 9.33337 15.6115 10.8407 15.6115 12.6993C15.6115 12.9632 15.6438 13.2202 15.7048 13.4663C12.8318 13.3325 10.2699 12.1034 8.49006 10.2189C8.36807 10.0897 8.14671 10.1069 8.07076 10.2644C7.86812 10.6847 7.75516 11.1509 7.75516 11.6418C7.75516 12.8094 8.39392 13.8396 9.36494 14.4432C8.92956 14.4301 8.5132 14.3453 8.1295 14.2013C7.94268 14.1312 7.72853 14.2544 7.75363 14.4428C7.94632 15.8894 9.11751 17.0828 10.6292 17.3648C10.3257 17.442 10.0059 17.483 9.67513 17.483C9.59493 17.483 9.51542 17.4805 9.43664 17.4757C9.23616 17.4633 9.07323 17.6426 9.15918 17.8142C9.72627 18.946 10.9508 19.7362 12.3757 19.7608C11.1372 20.6638 9.57663 21.2018 7.88085 21.2018C7.67176 21.2018 7.58206 21.4706 7.76756 21.5618C9.20025 22.266 10.8318 22.6667 12.5654 22.6667C19.2228 22.6667 22.8628 17.5378 22.8628 13.0897C22.8628 12.9441 22.8592 12.7985 22.8526 12.6542C23.3929 12.2912 23.8787 11.8595 24.2942 11.3751Z" fill="white"/>
</svg>
