<svg width="16" height="16" viewBox="0 0 16 16" fill="none" xmlns="http://www.w3.org/2000/svg">
<path d="M14 2.64999H12.7V2.09999C12.7 1.79999 12.45 1.52499 12.125 1.52499C11.8 1.52499 11.55 1.77499 11.55 2.09999V2.64999H4.42505V2.09999C4.42505 1.79999 4.17505 1.52499 3.85005 1.52499C3.52505 1.52499 3.27505 1.77499 3.27505 2.09999V2.64999H2.00005C1.15005 2.64999 0.425049 3.34999 0.425049 4.22499V12.925C0.425049 13.775 1.12505 14.5 2.00005 14.5H14C14.85 14.5 15.575 13.8 15.575 12.925V4.19999C15.575 3.34999 14.85 2.64999 14 2.64999ZM1.57505 7.29999H3.70005V9.77499H1.57505V7.29999ZM4.82505 7.29999H7.45005V9.77499H4.82505V7.29999ZM7.45005 10.9V13.35H4.82505V10.9H7.45005ZM8.57505 10.9H11.2V13.35H8.57505V10.9ZM8.57505 9.77499V7.29999H11.2V9.77499H8.57505ZM12.3 7.29999H14.425V9.77499H12.3V7.29999ZM2.00005 3.77499H3.30005V4.29999C3.30005 4.59999 3.55005 4.87499 3.87505 4.87499C4.20005 4.87499 4.45005 4.62499 4.45005 4.29999V3.77499H11.6V4.29999C11.6 4.59999 11.85 4.87499 12.175 4.87499C12.5 4.87499 12.75 4.62499 12.75 4.29999V3.77499H14C14.25 3.77499 14.45 3.97499 14.45 4.22499V6.17499H1.57505V4.22499C1.57505 3.97499 1.75005 3.77499 2.00005 3.77499ZM1.57505 12.9V10.875H3.70005V13.325H2.00005C1.75005 13.35 1.57505 13.15 1.57505 12.9ZM14 13.35H12.3V10.9H14.425V12.925C14.45 13.15 14.25 13.35 14 13.35Z" fill="white"/>
</svg>
