<svg width="16" height="16" viewBox="0 0 16 16" fill="none" xmlns="http://www.w3.org/2000/svg">
<path d="M11.1 4.875H4.64995C4.34995 4.875 4.07495 5.125 4.07495 5.45C4.07495 5.775 4.32495 6.025 4.64995 6.025H11.125C11.425 6.025 11.7 5.775 11.7 5.45C11.7 5.125 11.425 4.875 11.1 4.875Z" fill="white"/>
<path d="M9.79995 7.92502H4.64995C4.34995 7.92502 4.07495 8.17502 4.07495 8.50002C4.07495 8.82502 4.32495 9.07502 4.64995 9.07502H9.79995C10.1 9.07502 10.375 8.82502 10.375 8.50002C10.375 8.17502 10.1 7.92502 9.79995 7.92502Z" fill="white"/>
<path d="M14 1.97501H2.00005C1.15005 1.97501 0.425049 2.67501 0.425049 3.55001V12.975C0.425049 13.375 0.650049 13.75 1.02505 13.925C1.17505 14 1.32505 14.025 1.47505 14.025C1.72505 14.025 1.95005 13.95 2.15005 13.775L4.27505 12.025H14C14.85 12.025 15.575 11.325 15.575 10.45V3.55001C15.575 2.67501 14.85 1.97501 14 1.97501ZM14.45 10.45C14.45 10.7 14.25 10.9 14 10.9H4.07505C3.95005 10.9 3.82505 10.95 3.72505 11.025L1.57505 12.8V3.55001C1.57505 3.30001 1.77505 3.10001 2.02505 3.10001H14.025C14.275 3.10001 14.475 3.30001 14.475 3.55001V10.45H14.45Z" fill="white"/>
</svg>
