<svg width="33" height="33" viewBox="0 0 33 33" fill="none" xmlns="http://www.w3.org/2000/svg">
<path d="M16.2427 32.929C25.0792 32.929 32.2427 25.7655 32.2427 16.929C32.2427 8.0924 25.0792 0.928955 16.2427 0.928955C7.40612 0.928955 0.242676 8.0924 0.242676 16.929C0.242676 25.7655 7.40612 32.929 16.2427 32.929Z" fill="#D9377B"/>
<path d="M16.2642 19.4236C17.6419 19.4236 18.7588 18.3067 18.7588 16.9289C18.7588 15.5512 17.6419 14.4343 16.2642 14.4343C14.8864 14.4343 13.7695 15.5512 13.7695 16.9289C13.7695 18.3067 14.8864 19.4236 16.2642 19.4236Z" fill="white"/>
<path d="M18.9738 10.2622H13.5114C11.3394 10.2622 9.57593 12.0256 9.57593 14.1977V19.617C9.57593 21.8321 11.3394 23.5955 13.5114 23.5955H18.9308C21.1458 23.5955 22.9093 21.8321 22.9093 19.6601V14.1977C22.9093 12.0256 21.1458 10.2622 18.9738 10.2622ZM16.2641 20.1977C14.4361 20.1977 12.9953 18.7138 12.9953 16.9289C12.9953 15.1439 14.4576 13.6601 16.2641 13.6601C18.049 13.6601 19.5114 15.1439 19.5114 16.9289C19.5114 18.7138 18.0706 20.1977 16.2641 20.1977ZM20.7802 13.9611C20.5652 14.1977 20.2426 14.3267 19.877 14.3267C19.5544 14.3267 19.2318 14.1977 18.9738 13.9611C18.7372 13.7246 18.6082 13.4235 18.6082 13.0579C18.6082 12.6923 18.7372 12.4127 18.9738 12.1547C19.2103 11.8966 19.5114 11.7676 19.877 11.7676C20.1996 11.7676 20.5437 11.8966 20.7802 12.1332C20.9953 12.4127 21.1458 12.7353 21.1458 13.0794C21.1243 13.4235 20.9953 13.7246 20.7802 13.9611Z" fill="white"/>
<path d="M19.8989 12.5415C19.6194 12.5415 19.3828 12.7781 19.3828 13.0576C19.3828 13.3372 19.6194 13.5738 19.8989 13.5738C20.1785 13.5738 20.4151 13.3372 20.4151 13.0576C20.4151 12.7781 20.2 12.5415 19.8989 12.5415Z" fill="white"/>
</svg>
