<svg width="20" height="26" viewBox="0 0 20 26" fill="none" xmlns="http://www.w3.org/2000/svg">
<path d="M12.8 25.5781C11.9375 25.5781 11.1469 25.075 10.8594 24.2844L8.48751 18.5344C5.82813 18.1031 3.45626 16.7375 1.94688 14.6531C0.365634 12.5687 -0.137491 9.98123 0.509384 7.46561C1.51563 3.36873 5.75626 0.278108 10.4281 0.349983C13.7344 0.421858 16.4656 1.78748 18.2625 4.23123C19.9875 6.67498 20.4188 9.98123 19.4125 13C18.4781 15.7312 17.2563 18.4625 16.1063 21.1219C15.675 22.2 15.1719 23.2781 14.7406 24.2844C14.4531 25.075 13.6625 25.5781 12.8 25.5781ZM10.2844 3.58436C7.12188 3.58436 4.24688 5.59686 3.60001 8.25623C3.24063 9.83748 3.52813 11.4187 4.53438 12.7125C5.68438 14.2937 7.62501 15.3 9.70938 15.4437L10.7156 15.5156L12.8 20.5469C12.8719 20.3312 13.0156 20.0437 13.0875 19.8281C14.2375 17.2406 15.3875 14.5812 16.25 11.9219C16.9688 9.90936 16.6813 7.68123 15.5313 6.09998C14.3813 4.51873 12.5844 3.65623 10.3563 3.58436C10.3563 3.58436 10.3563 3.58436 10.2844 3.58436Z" fill="#3758F9"/>
</svg>
