<svg width="88" height="91" viewBox="0 0 88 91" fill="none" xmlns="http://www.w3.org/2000/svg">
<ellipse cx="1.69027" cy="1.69027" rx="1.69027" ry="1.69027" transform="matrix(0.695803 -0.718232 0.695803 0.718232 10.8489 77.8889)" fill="#3758F9"/>
<ellipse cx="1.69027" cy="1.69027" rx="1.69027" ry="1.69027" transform="matrix(0.695803 -0.718232 0.695803 0.718232 21.197 88.5718)" fill="#3758F9"/>
<ellipse cx="1.69027" cy="1.69027" rx="1.69027" ry="1.69027" transform="matrix(0.695803 -0.718232 0.695803 0.718232 0.561035 88.3035)" fill="#3758F9"/>
<ellipse cx="1.69027" cy="1.69027" rx="1.69027" ry="1.69027" transform="matrix(0.695803 -0.718232 0.695803 0.718232 21.197 67.2046)" fill="#3758F9"/>
<ellipse cx="1.69027" cy="1.69027" rx="1.69027" ry="1.69027" transform="matrix(0.695803 -0.718232 0.695803 0.718232 31.5476 77.8877)" fill="#3758F9"/>
<ellipse cx="1.69027" cy="1.69027" rx="1.69027" ry="1.69027" transform="matrix(0.695803 -0.718232 0.695803 0.718232 41.8982 88.5718)" fill="#3758F9"/>
<ellipse cx="1.69027" cy="1.69027" rx="1.69027" ry="1.69027" transform="matrix(0.695803 -0.718232 0.695803 0.718232 31.5476 56.5217)" fill="#3758F9"/>
<ellipse cx="1.69027" cy="1.69027" rx="1.69027" ry="1.69027" transform="matrix(0.695803 -0.718232 0.695803 0.718232 62.3608 24.7151)" fill="#3758F9"/>
<ellipse cx="1.69027" cy="1.69027" rx="1.69027" ry="1.69027" transform="matrix(0.695803 -0.718232 0.695803 0.718232 41.8982 67.2046)" fill="#3758F9"/>
<ellipse cx="1.69027" cy="1.69027" rx="1.69027" ry="1.69027" transform="matrix(0.695803 -0.718232 0.695803 0.718232 72.7114 35.3982)" fill="#3758F9"/>
<ellipse cx="1.69027" cy="1.69027" rx="1.69027" ry="1.69027" transform="matrix(0.695803 -0.718232 0.695803 0.718232 52.2463 77.8889)" fill="#3758F9"/>
<ellipse cx="1.69027" cy="1.69027" rx="1.69027" ry="1.69027" transform="matrix(0.695803 -0.718232 0.695803 0.718232 83.062 46.0825)" fill="#3758F9"/>
<ellipse cx="1.69027" cy="1.69027" rx="1.69027" ry="1.69027" transform="matrix(0.695803 -0.718232 0.695803 0.718232 62.5969 88.5706)" fill="#3758F9"/>
<ellipse cx="1.69027" cy="1.69027" rx="1.69027" ry="1.69027" transform="matrix(0.695803 -0.718232 0.695803 0.718232 41.8982 45.8386)" fill="#3758F9"/>
<ellipse cx="1.69027" cy="1.69027" rx="1.69027" ry="1.69027" transform="matrix(0.695803 -0.718232 0.695803 0.718232 72.7114 14.0322)" fill="#3758F9"/>
<ellipse cx="1.69027" cy="1.69027" rx="1.69027" ry="1.69027" transform="matrix(0.695803 -0.718232 0.695803 0.718232 52.2463 56.5217)" fill="#3758F9"/>
<ellipse cx="1.69027" cy="1.69027" rx="1.69027" ry="1.69027" transform="matrix(0.695803 -0.718232 0.695803 0.718232 83.0596 24.7139)" fill="#3758F9"/>
<ellipse cx="1.69027" cy="1.69027" rx="1.69027" ry="1.69027" transform="matrix(0.695803 -0.718232 0.695803 0.718232 62.5969 67.2061)" fill="#3758F9"/>
<ellipse cx="1.69027" cy="1.69027" rx="1.69027" ry="1.69027" transform="matrix(0.695803 -0.718232 0.695803 0.718232 72.9451 77.8877)" fill="#3758F9"/>
<ellipse cx="1.69027" cy="1.69027" rx="1.69027" ry="1.69027" transform="matrix(0.695803 -0.718232 0.695803 0.718232 83.2957 88.5718)" fill="#3758F9"/>
<ellipse cx="1.69027" cy="1.69027" rx="1.69027" ry="1.69027" transform="matrix(0.695803 -0.718232 0.695803 0.718232 52.2463 35.1558)" fill="#3758F9"/>
<ellipse cx="1.69027" cy="1.69027" rx="1.69027" ry="1.69027" transform="matrix(0.695803 -0.718232 0.695803 0.718232 83.0596 3.3479)" fill="#3758F9"/>
<ellipse cx="1.69027" cy="1.69027" rx="1.69027" ry="1.69027" transform="matrix(0.695803 -0.718232 0.695803 0.718232 62.5969 45.8386)" fill="#3758F9"/>
<ellipse cx="1.69027" cy="1.69027" rx="1.69027" ry="1.69027" transform="matrix(0.695803 -0.718232 0.695803 0.718232 72.9475 56.5229)" fill="#3758F9"/>
<ellipse cx="1.69027" cy="1.69027" rx="1.69027" ry="1.69027" transform="matrix(0.695803 -0.718232 0.695803 0.718232 83.2957 67.2046)" fill="#3758F9"/>
</svg>
