<svg width="33" height="33" viewBox="0 0 33 33" fill="none" xmlns="http://www.w3.org/2000/svg">
<path fill-rule="evenodd" clip-rule="evenodd" d="M0.242676 16.929C0.242676 8.0924 7.40612 0.928955 16.2427 0.928955C25.0792 0.928955 32.2427 8.0924 32.2427 16.929C32.2427 25.7655 25.0792 32.929 16.2427 32.929C7.40612 32.929 0.242676 25.7655 0.242676 16.929Z" fill="#1C9CEA"/>
<path d="M22.8779 13.2291C22.9671 13.1252 22.8509 12.9894 22.719 13.038C22.4247 13.1466 22.1558 13.2182 21.7581 13.2624C22.2473 12.99 22.4748 12.6006 22.6599 12.1238C22.7045 12.0087 22.5699 11.9044 22.4539 11.9593C21.9831 12.1826 21.475 12.3482 20.9407 12.4461C20.4127 11.9227 19.6599 11.5957 18.8273 11.5957C17.2283 11.5957 15.9317 12.8015 15.9317 14.2885C15.9317 14.4996 15.9576 14.7052 16.0064 14.9021C13.708 14.795 11.6585 13.8118 10.2346 12.3041C10.137 12.2008 9.9599 12.2145 9.89913 12.3405C9.73703 12.6768 9.64665 13.0498 9.64665 13.4425C9.64665 14.3765 10.1577 15.2007 10.9345 15.6836C10.5862 15.6731 10.2531 15.6052 9.94613 15.4901C9.79667 15.434 9.62535 15.5325 9.64543 15.6832C9.79959 16.8405 10.7365 17.7952 11.9459 18.0208C11.7031 18.0826 11.4473 18.1154 11.1826 18.1154C11.1185 18.1154 11.0549 18.1134 10.9918 18.1096C10.8315 18.0996 10.7011 18.2431 10.7699 18.3804C11.2235 19.2858 12.2032 19.918 13.3431 19.9376C12.3523 20.66 11.1038 21.0904 9.74721 21.0904C9.57993 21.0904 9.50817 21.3055 9.65657 21.3784C10.8027 21.9418 12.108 22.2624 13.4948 22.2624C18.8208 22.2624 21.7328 18.1592 21.7328 14.6007C21.7328 14.4843 21.7299 14.3678 21.7246 14.2524C22.1569 13.962 22.5455 13.6166 22.8779 13.2291Z" fill="white"/>
</svg>
