<svg width="20" height="26" viewBox="0 0 20 26" fill="none" xmlns="http://www.w3.org/2000/svg">
<path d="M12.5905 25.65C11.728 25.65 10.9374 25.1469 10.6499 24.3563L8.27803 18.6063C5.61866 18.175 3.24679 16.8094 1.73741 14.725C0.156161 12.6406 -0.346963 10.0531 0.299911 7.53751C1.30616 3.44063 5.54679 0.350008 10.2187 0.421883C13.5249 0.493758 16.2562 1.85938 17.9812 4.30313C19.7062 6.74688 20.1374 10.0531 19.1312 13.0719C18.1968 15.8031 16.9749 18.5344 15.8249 21.1938C15.3937 22.2719 14.8905 23.35 14.4593 24.3563C14.2437 25.1469 13.453 25.65 12.5905 25.65ZM10.0749 3.58438C6.91241 3.58438 4.03741 5.59688 3.39054 8.25626C3.03116 9.83751 3.31866 11.4188 4.32491 12.7844C5.47491 14.3656 7.41553 15.3719 9.49991 15.5156L10.5062 15.5875L12.5905 20.6188C12.6624 20.4031 12.8062 20.1156 12.878 19.9C14.028 17.3125 15.178 14.6531 16.0405 11.9938C16.7593 9.98126 16.4718 7.75313 15.3218 6.10001C14.1718 4.51876 12.3749 3.65626 10.1468 3.58438C10.1468 3.58438 10.1468 3.58438 10.0749 3.58438Z" fill="#3758F9"/>
</svg>
