<svg width="33" height="33" viewBox="0 0 33 33" fill="none" xmlns="http://www.w3.org/2000/svg">
<path d="M0.242676 16.929C0.242676 8.0924 7.40612 0.928955 16.2427 0.928955C25.0792 0.928955 32.2427 8.0924 32.2427 16.929C32.2427 25.7655 25.0792 32.929 16.2427 32.929C7.40612 32.929 0.242676 25.7655 0.242676 16.929Z" fill="#4064AC"/>
<g clip-path="url(#clip0_1_2734)">
<path d="M20.0929 15.379H18.6929H18.1929V14.879V13.329V12.829H18.6929H19.7429C20.0179 12.829 20.2429 12.629 20.2429 12.329V9.67896C20.2429 9.40396 20.0429 9.17896 19.7429 9.17896H17.9179C15.9429 9.17896 14.5679 10.579 14.5679 12.654V14.829V15.329H14.0679H12.3679C12.0179 15.329 11.6929 15.604 11.6929 16.004V17.804C11.6929 18.154 11.9679 18.479 12.3679 18.479H14.0179H14.5179V18.979V24.004C14.5179 24.354 14.7929 24.679 15.1929 24.679H17.5429C17.6929 24.679 17.8179 24.604 17.9179 24.504C18.0179 24.404 18.0929 24.229 18.0929 24.079V19.004V18.504H18.6179H19.7429C20.0679 18.504 20.3179 18.304 20.3679 18.004V17.979V17.954L20.7179 16.229C20.7429 16.054 20.7179 15.854 20.5679 15.654C20.5179 15.529 20.2929 15.404 20.0929 15.379Z" fill="white"/>
</g>
<defs>
<clipPath id="clip0_1_2734">
<rect width="16" height="16" fill="white" transform="translate(8.24268 8.92896)"/>
</clipPath>
</defs>
</svg>
