<svg width="370" height="392" viewBox="0 0 370 392" fill="none" xmlns="http://www.w3.org/2000/svg">
<g clip-path="url(#clip0_100_136)">
<rect width="370" height="392" rx="5" fill="#3758F9"/>
<circle cx="325.397" cy="45.6026" r="1.39737" transform="rotate(-90 325.397 45.6026)" fill="white" fill-opacity="0.44"/>
<circle cx="325.397" cy="8.99124" r="1.39737" transform="rotate(-90 325.397 8.99124)" fill="white" fill-opacity="0.44"/>
<circle cx="337.695" cy="45.6026" r="1.39737" transform="rotate(-90 337.695 45.6026)" fill="white" fill-opacity="0.44"/>
<circle cx="337.695" cy="8.99124" r="1.39737" transform="rotate(-90 337.695 8.99124)" fill="white" fill-opacity="0.44"/>
<circle cx="349.991" cy="45.6026" r="1.39737" transform="rotate(-90 349.991 45.6026)" fill="white" fill-opacity="0.44"/>
<circle cx="349.991" cy="8.99124" r="1.39737" transform="rotate(-90 349.991 8.99124)" fill="white" fill-opacity="0.44"/>
<circle cx="362.288" cy="45.6026" r="1.39737" transform="rotate(-90 362.288 45.6026)" fill="white" fill-opacity="0.44"/>
<circle cx="362.288" cy="8.99124" r="1.39737" transform="rotate(-90 362.288 8.99124)" fill="white" fill-opacity="0.44"/>
<circle cx="325.397" cy="33.3058" r="1.39737" transform="rotate(-90 325.397 33.3058)" fill="white" fill-opacity="0.44"/>
<circle cx="337.695" cy="33.3058" r="1.39737" transform="rotate(-90 337.695 33.3058)" fill="white" fill-opacity="0.44"/>
<circle cx="349.991" cy="33.3058" r="1.39737" transform="rotate(-90 349.991 33.3058)" fill="white" fill-opacity="0.44"/>
<circle cx="362.288" cy="33.3058" r="1.39737" transform="rotate(-90 362.288 33.3058)" fill="white" fill-opacity="0.44"/>
<circle cx="325.397" cy="21.0087" r="1.39737" transform="rotate(-90 325.397 21.0087)" fill="white" fill-opacity="0.44"/>
<circle cx="337.695" cy="21.0087" r="1.39737" transform="rotate(-90 337.695 21.0087)" fill="white" fill-opacity="0.44"/>
<circle cx="349.991" cy="21.0087" r="1.39737" transform="rotate(-90 349.991 21.0087)" fill="white" fill-opacity="0.44"/>
<circle cx="362.288" cy="21.0087" r="1.39737" transform="rotate(-90 362.288 21.0087)" fill="white" fill-opacity="0.44"/>
<circle cx="6.99112" cy="372.991" r="1.39737" transform="rotate(-90 6.99112 372.991)" fill="white" fill-opacity="0.44"/>
<circle cx="19.2885" cy="372.991" r="1.39737" transform="rotate(-90 19.2885 372.991)" fill="white" fill-opacity="0.44"/>
<circle cx="31.5849" cy="372.991" r="1.39737" transform="rotate(-90 31.5849 372.991)" fill="white" fill-opacity="0.44"/>
<circle cx="43.7213" cy="372.991" r="1.39737" transform="rotate(-90 43.7213 372.991)" fill="white" fill-opacity="0.44"/>
<circle cx="6.99112" cy="360.694" r="1.39737" transform="rotate(-90 6.99112 360.694)" fill="white" fill-opacity="0.44"/>
<circle cx="19.2885" cy="360.694" r="1.39737" transform="rotate(-90 19.2885 360.694)" fill="white" fill-opacity="0.44"/>
<circle cx="31.5849" cy="360.694" r="1.39737" transform="rotate(-90 31.5849 360.694)" fill="white" fill-opacity="0.44"/>
<circle cx="43.7213" cy="360.694" r="1.39737" transform="rotate(-90 43.7213 360.694)" fill="white" fill-opacity="0.44"/>
<circle cx="6.99112" cy="385.009" r="1.39737" transform="rotate(-90 6.99112 385.009)" fill="white" fill-opacity="0.44"/>
<circle cx="6.99112" cy="348.397" r="1.39737" transform="rotate(-90 6.99112 348.397)" fill="white" fill-opacity="0.44"/>
<circle cx="19.2885" cy="385.009" r="1.39737" transform="rotate(-90 19.2885 385.009)" fill="white" fill-opacity="0.44"/>
<circle cx="19.2885" cy="348.397" r="1.39737" transform="rotate(-90 19.2885 348.397)" fill="white" fill-opacity="0.44"/>
<circle cx="31.5849" cy="385.009" r="1.39737" transform="rotate(-90 31.5849 385.009)" fill="white" fill-opacity="0.44"/>
<circle cx="43.7213" cy="385.009" r="1.39737" transform="rotate(-90 43.7213 385.009)" fill="white" fill-opacity="0.44"/>
<circle cx="31.5849" cy="348.398" r="1.39737" transform="rotate(-90 31.5849 348.398)" fill="white" fill-opacity="0.44"/>
<circle cx="43.7213" cy="348.398" r="1.39737" transform="rotate(-90 43.7213 348.398)" fill="white" fill-opacity="0.44"/>
</g>
<defs>
<clipPath id="clip0_100_136">
<rect width="370" height="392" fill="white"/>
</clipPath>
</defs>
</svg>
